<svg xmlns="http://www.w3.org/2000/svg" width="14.905" height="16.622" viewBox="0 0 14.905 16.622">
  <path id="Path_340150" data-name="Path 340150" d="M14.423,11.067a7.211,7.211,0,0,0-7.2,7.2v.272H21.625V18.27A7.21,7.21,0,0,0,14.423,11.067ZM7.771,18a6.658,6.658,0,0,1,13.3,0Zm6.652-8.342a3.617,3.617,0,1,0-3.617-3.617A3.621,3.621,0,0,0,14.423,9.655Zm0-6.689a3.072,3.072,0,1,1-3.072,3.072A3.076,3.076,0,0,1,14.423,2.965Z" transform="translate(-6.97 -2.17)" fill="#ffc79a" stroke="#ffc79a" stroke-width="0.5"/>
</svg>
