<svg xmlns="http://www.w3.org/2000/svg" width="18.314" height="17.742" viewBox="0 0 18.314 17.742">
  <path id="Path_340105" data-name="Path 340105" d="M19.848,9.881V9.124A2.016,2.016,0,0,0,17.824,7.1H7.724A2.016,2.016,0,0,0,5.7,9.124V22.618a2.016,2.016,0,0,0,2.024,2.024h10.1a2.016,2.016,0,0,0,2.024-2.024V20.9l2.781,2.229-.736-5.4a4.287,4.287,0,0,0-2.045-7.851Zm-2,14.087H7.724a1.361,1.361,0,0,1-1.349-1.349V9.124A1.361,1.361,0,0,1,7.724,7.775h10.1a1.361,1.361,0,0,1,1.349,1.349v.756a4.288,4.288,0,0,0-2.024,7.851l-.736,5.4L19.194,20.9v1.717A1.375,1.375,0,0,1,17.844,23.967Zm-.532-2.433.47-3.455a4.141,4.141,0,0,0,1.738.368,4.482,4.482,0,0,0,1.738-.368l.47,3.455-2.208-1.779Zm2.208-3.762a3.619,3.619,0,1,1,3.619-3.619A3.612,3.612,0,0,1,19.521,17.772Z" transform="translate(-5.6 -7)" fill="#ffc79a" stroke="#ffc79a" stroke-width="0.2"/>
</svg>
