<svg xmlns="http://www.w3.org/2000/svg" width="39.693" height="38.445" viewBox="0 0 39.693 38.445">
  <path id="Path_340105" data-name="Path 340105" d="M36.546,13.162V11.513A4.395,4.395,0,0,0,32.133,7.1H10.113A4.395,4.395,0,0,0,5.7,11.513V40.932a4.395,4.395,0,0,0,4.413,4.413h22.02a4.395,4.395,0,0,0,4.413-4.413V37.188l6.062,4.859L41,30.279a9.347,9.347,0,0,0-4.457-17.117ZM32.177,43.874H10.113a2.968,2.968,0,0,1-2.942-2.942V11.513a2.968,2.968,0,0,1,2.942-2.942h22.02a2.968,2.968,0,0,1,2.942,2.942v1.649a9.35,9.35,0,0,0-4.413,17.117l-1.6,11.768,6.062-4.859v3.744A3,3,0,0,1,32.177,43.874Zm-1.159-5.3,1.025-7.533a9.028,9.028,0,0,0,3.789.8,9.773,9.773,0,0,0,3.789-.8l1.025,7.533-4.814-3.878Zm4.814-8.2a7.89,7.89,0,1,1,7.89-7.89A7.876,7.876,0,0,1,35.833,30.368Z" transform="translate(-5.6 -7)" fill="#ffc79a" stroke="#ffc79a" stroke-width="0.2"/>
</svg>
