<svg xmlns="http://www.w3.org/2000/svg" width="30.81" height="34.422" viewBox="0 0 30.81 34.422">
  <path id="Path_340106" data-name="Path 340106" d="M22.375,20.615A15.173,15.173,0,0,0,7.22,35.77v.572H37.53V35.77A15.17,15.17,0,0,0,22.375,20.615Zm-14,14.579a14.008,14.008,0,0,1,27.993,0Zm14-17.552a7.611,7.611,0,1,0-7.611-7.611A7.62,7.62,0,0,0,22.375,17.643Zm0-14.075a6.464,6.464,0,1,1-6.464,6.464A6.473,6.473,0,0,1,22.375,3.568Z" transform="translate(-6.97 -2.17)" fill="#ffc79a" stroke="#ffc79a" stroke-width="0.5"/>
</svg>
