<svg xmlns="http://www.w3.org/2000/svg" width="42.054" height="46.874" viewBox="0 0 42.054 46.874">
  <g id="Group_39226" data-name="Group 39226" transform="translate(-575.69 -464.281) rotate(31)">
    <path id="Path_340103" data-name="Path 340103" d="M36.619,13.213V8.939a.939.939,0,1,0-1.878,0v4.273A12.666,12.666,0,0,0,23,25.845v8.923a12.68,12.68,0,0,0,25.359,0V25.845A12.666,12.666,0,0,0,36.619,13.213Zm9.862,21.555a10.8,10.8,0,0,1-21.6,0V25.845a10.8,10.8,0,0,1,21.6,0Z" transform="translate(727 83)" fill="#ffc79a"/>
    <path id="Path_340104" data-name="Path 340104" d="M48.939,32a.942.942,0,0,0-.939.939v8.923a.939.939,0,0,0,1.878,0V32.939A.942.942,0,0,0,48.939,32Z" transform="translate(713.74 70.271)" fill="#ffc79a"/>
  </g>
</svg>
