<svg xmlns="http://www.w3.org/2000/svg" width="35.131" height="29.504" viewBox="0 0 35.131 29.504">
  <path id="Path_340110" data-name="Path 340110" d="M48.223,59.9H38.874s0-.031,0-.046V56.472A1.47,1.47,0,0,0,37.384,55H29.247a1.47,1.47,0,0,0-1.487,1.473v3.387c0,.014,0,.046,0,.046H18.408A2.419,2.419,0,0,0,16,62.331V81.6A2.4,2.4,0,0,0,18.408,84H48.223a2.4,2.4,0,0,0,2.408-2.4V62.331A2.419,2.419,0,0,0,48.223,59.9Zm-19.308-.046V56.472a.315.315,0,0,1,.333-.319h8.137a.315.315,0,0,1,.333.319v3.387a.194.194,0,0,0,.008.046H28.907a.194.194,0,0,0,.008-.046ZM49.476,81.6a1.24,1.24,0,0,1-1.254,1.245H18.408A1.24,1.24,0,0,1,17.154,81.6V62.331a1.263,1.263,0,0,1,1.254-1.272H48.223a1.263,1.263,0,0,1,1.254,1.272Z" transform="translate(-15.75 -54.749)" fill="#ffc79a" stroke="#ffc79a" stroke-width="0.5"/>
</svg>
