<svg xmlns="http://www.w3.org/2000/svg" width="41.77" height="36.5" viewBox="0 0 41.77 36.5">
  <g id="Group_39229" data-name="Group 39229" transform="translate(-8.75 -25.478)">
    <path id="Path_340111" data-name="Path 340111" d="M29.635,45.238a11.159,11.159,0,0,0,2.715-6.557,11.111,11.111,0,0,0-1.158-.224,11.483,11.483,0,0,0-3.116,0,11.12,11.12,0,0,0-1.158.224,11.158,11.158,0,0,0,2.716,6.557Zm2.74-7.521a11.151,11.151,0,0,0-2.74-7.178,11.151,11.151,0,0,0-2.741,7.178q.517-.119,1.053-.194a12.2,12.2,0,0,1,3.374,0Q31.858,37.6,32.375,37.717ZM26,38.954a11.221,11.221,0,0,0-7.551,9.82A11.119,11.119,0,0,0,19.6,49a11.331,11.331,0,0,0,1.558.106,11.173,11.173,0,0,0,7.824-3.178A12.118,12.118,0,0,1,26,38.954Zm4.289,6.972a11.228,11.228,0,0,0,10.539,2.848,11.221,11.221,0,0,0-7.551-9.82,12.12,12.12,0,0,1-2.989,6.972Zm7.824-20.2a12.163,12.163,0,0,1,3.685,23.753v.086a12.161,12.161,0,1,1-24.322,0v-.086A12.163,12.163,0,1,1,25.952,26.71h0a12.174,12.174,0,0,1,3.681,2.459,12.176,12.176,0,0,1,3.681-2.459l.026-.01A12.115,12.115,0,0,1,38.109,25.728Zm7.93,4.23a11.232,11.232,0,0,0-12.328-2.391l-.022.01a11.243,11.243,0,0,0-3.4,2.274,12.134,12.134,0,0,1,3.036,8.038v.086A12.172,12.172,0,0,1,41.748,48.5,11.219,11.219,0,0,0,46.04,29.958Zm-17.055-.107a11.24,11.24,0,0,0-3.4-2.274h0A11.219,11.219,0,1,0,17.522,48.5,12.172,12.172,0,0,1,25.95,37.975l0-.086a12.134,12.134,0,0,1,3.036-8.038ZM18.421,49.739a11.216,11.216,0,0,0,22.428,0q-.517.119-1.053.193a12.276,12.276,0,0,1-1.687.117,12.129,12.129,0,0,1-8.474-3.441,12.163,12.163,0,0,1-10.161,3.323q-.536-.075-1.053-.194Z" fill="#ffc79a" stroke="#ffc79a" stroke-width="0.5"/>
  </g>
</svg>
