<svg xmlns="http://www.w3.org/2000/svg" width="41.902" height="23.1" viewBox="0 0 41.902 23.1">
  <g id="Group_39228" data-name="Group 39228" transform="translate(-349 -506)">
    <g id="Group_39227" data-name="Group 39227" transform="translate(349 506)">
      <path id="Path_340108" data-name="Path 340108" d="M68,36.557v8.864l10.744,5.1V31.4Zm9.132,11.389-7.521-3.6V37.524l7.521-3.6Z" transform="translate(-36.842 -29.574)" fill="#ffc79a"/>
      <path id="Path_340109" data-name="Path 340109" d="M38.472,33.1a5.136,5.136,0,0,0-5.1-5.1H15.1A5.136,5.136,0,0,0,10,33.1V46a5.136,5.136,0,0,0,5.1,5.1H33.368a5.136,5.136,0,0,0,5.1-5.1ZM36.86,46a3.485,3.485,0,0,1-3.492,3.492H15.1A3.485,3.485,0,0,1,11.612,46V33.1A3.485,3.485,0,0,1,15.1,29.612H33.368A3.485,3.485,0,0,1,36.86,33.1Z" transform="translate(-10 -28)" fill="#ffc79a"/>
    </g>
  </g>
</svg>
