<svg xmlns="http://www.w3.org/2000/svg" width="18.117" height="15.868" viewBox="0 0 18.117 15.868">
  <g id="Group_39270" data-name="Group 39270" transform="translate(-8.75 -25.478)">
    <path id="Path_340111" data-name="Path 340111" d="M17.809,34.056a4.764,4.764,0,0,0,1.159-2.8,4.743,4.743,0,0,0-.494-.1,4.9,4.9,0,0,0-1.33,0,4.747,4.747,0,0,0-.494.1,4.763,4.763,0,0,0,1.159,2.8Zm1.17-3.211a4.76,4.76,0,0,0-1.17-3.064,4.76,4.76,0,0,0-1.17,3.064q.221-.051.45-.083a5.208,5.208,0,0,1,1.44,0Q18.758,30.795,18.978,30.846Zm-2.723.528a4.79,4.79,0,0,0-3.223,4.192,4.746,4.746,0,0,0,.494.1,4.837,4.837,0,0,0,.665.045,4.769,4.769,0,0,0,3.34-1.357,5.173,5.173,0,0,1-1.276-2.976Zm1.831,2.976a4.793,4.793,0,0,0,4.5,1.216,4.79,4.79,0,0,0-3.223-4.192,5.174,5.174,0,0,1-1.276,2.976Zm3.34-8.622A5.192,5.192,0,0,1,23,35.868V35.9a5.191,5.191,0,1,1-10.382,0v-.037a5.192,5.192,0,1,1,3.619-9.72h0a5.2,5.2,0,0,1,1.571,1.05,5.2,5.2,0,0,1,1.571-1.05l.011,0A5.172,5.172,0,0,1,21.426,25.728Zm3.385,1.806a4.795,4.795,0,0,0-5.263-1.021l-.01,0a4.8,4.8,0,0,0-1.453.971,5.18,5.18,0,0,1,1.3,3.431v.037a5.2,5.2,0,0,1,3.6,4.494,4.789,4.789,0,0,0,1.832-7.916Zm-7.28-.046a4.8,4.8,0,0,0-1.453-.971h0a4.789,4.789,0,1,0-3.441,8.932,5.2,5.2,0,0,1,3.6-4.493v-.037a5.18,5.18,0,0,1,1.3-3.431Zm-4.51,8.49a4.788,4.788,0,0,0,9.574,0q-.22.051-.45.083a5.24,5.24,0,0,1-.72.05,5.177,5.177,0,0,1-3.617-1.469,5.192,5.192,0,0,1-4.338,1.419Q13.242,36.028,13.021,35.978Z" fill="#ffc79a" stroke="#ffc79a" stroke-width="0.5"/>
  </g>
</svg>
