<svg xmlns="http://www.w3.org/2000/svg" width="21.999" height="24.52" viewBox="0 0 21.999 24.52">
  <g id="Group_39265" data-name="Group 39265" transform="translate(-585.379 -464.281) rotate(31)">
    <path id="Path_340103" data-name="Path 340103" d="M30.124,10.727V8.491a.491.491,0,1,0-.983,0v2.235A6.626,6.626,0,0,0,23,17.335V22a6.633,6.633,0,0,0,13.266,0V17.335A6.626,6.626,0,0,0,30.124,10.727ZM35.283,22a5.65,5.65,0,0,1-11.3,0V17.335a5.65,5.65,0,0,1,11.3,0Z" transform="translate(727 83)" fill="#ffc79a"/>
    <path id="Path_340104" data-name="Path 340104" d="M48.491,32a.493.493,0,0,0-.491.491v4.668a.491.491,0,0,0,.983,0V32.491A.493.493,0,0,0,48.491,32Z" transform="translate(708.141 64.896)" fill="#ffc79a"/>
  </g>
</svg>
