<svg xmlns="http://www.w3.org/2000/svg" width="7.177" height="8.681" viewBox="0 0 7.177 8.681">
  <g id="Group_39223" data-name="Group 39223" transform="translate(-24.57 -18.24)">
    <path id="Path_340097" data-name="Path 340097" d="M26.281,26.921h3.753a1.713,1.713,0,0,0,1.713-1.713V22.4a.484.484,0,0,0-.484-.484h-.824V20.454a2.214,2.214,0,1,0-4.427,0v1.464h-.958a.484.484,0,0,0-.484.484V25.21A1.712,1.712,0,0,0,26.281,26.921Zm2.327-2.3a.45.45,0,0,1-.9,0v-.456a.45.45,0,0,1,.9,0Zm-1.751-4.165a1.367,1.367,0,1,1,2.734,0v1.464H26.857Z" fill="#838383"/>
  </g>
</svg>
