<svg xmlns="http://www.w3.org/2000/svg" width="21.149" height="11.659" viewBox="0 0 21.149 11.659">
  <g id="Group_39273" data-name="Group 39273" transform="translate(-349 -506)">
    <g id="Group_39227" data-name="Group 39227" transform="translate(349 506)">
      <path id="Path_340108" data-name="Path 340108" d="M68,34v4.474l5.423,2.576V31.4Zm4.609,5.748-3.8-1.817V34.491l3.8-1.817Z" transform="translate(-52.273 -30.478)" fill="#ffc79a"/>
      <path id="Path_340109" data-name="Path 340109" d="M24.371,30.576A2.592,2.592,0,0,0,21.795,28H12.576A2.592,2.592,0,0,0,10,30.576v6.508a2.592,2.592,0,0,0,2.576,2.576h9.219a2.592,2.592,0,0,0,2.576-2.576Zm-.813,6.508a1.759,1.759,0,0,1-1.762,1.762H12.576a1.759,1.759,0,0,1-1.762-1.762V30.576a1.759,1.759,0,0,1,1.762-1.762h9.219a1.759,1.759,0,0,1,1.762,1.762Z" transform="translate(-10 -28)" fill="#ffc79a"/>
    </g>
  </g>
</svg>
